# xmcd CD database file
#
# Track frame offsets:
#	150
#	19656
#	34719
#	52585
#	61637
#	75134
#	87809
#	101949
#	116014
#	131724
#	149804
#	168580
#	185784
#	208028
#	240918
#	269621
#
# Disc length: 4440 seconds
#
# Revision: 1
# Processed by: cddbd v1.5.2PL0 Copyright (c) Steve Scherf et al.
# Submitted via: CDex 1.90
#
DISCID=d8115610
DTITLE=Erasure - Other People's Songs (Jaman CD)
DYEAR=2003
DGENRE=Synthpop
TTITLE0=Solsbury Hill
TTITLE1=Everybody's Got To Learn Sometime
TTITLE2=Make Me Smile (Come Up And See Me)
TTITLE3=Everyday
TTITLE4=When Will I See You Again
TTITLE5=Walking In The Rain
TTITLE6=True Love Ways
TTITLE7=Ebb Tide
TTITLE8=Can't Help Falling In Love
TTITLE9=You've Lost That Lovin' Feelin'
TTITLE10=Goodnight
TTITLE11=Video Killed The Radio Star
TTITLE12=Solsbury Hill (37B Mix)
TTITLE13=Solsbury Hill (Manhattan Clique Extended Remix)
TTITLE14=Video Killed The Radio Star (37B Mix)
TTITLE15=CDS200.0.4 3.0 build 16e
EXTD=YEAR: 2003
EXTT0=
EXTT1=
EXTT2=
EXTT3=
EXTT4=
EXTT5=
EXTT6=
EXTT7=
EXTT8=
EXTT9=
EXTT10=
EXTT11=
EXTT12=
EXTT13=
EXTT14=
EXTT15=
PLAYORDER=
